<?xml version="1.0" encoding="UTF-8" standalone="no"?>
<!DOCTYPE svg PUBLIC "-//W3C//DTD SVG 1.1//EN"
 "http://www.w3.org/Graphics/SVG/1.1/DTD/svg11.dtd">
<!-- Generated by graphviz version 2.47.0 (20210316.0004)
 -->
<!-- Title: dependencies Pages: 1 -->
<svg width="1697pt" height="287pt"
 viewBox="0.00 0.00 1697.00 287.00" xmlns="http://www.w3.org/2000/svg" xmlns:xlink="http://www.w3.org/1999/xlink">
<g id="graph0" class="graph" transform="scale(1 1) rotate(0) translate(4 283)">
<title>dependencies</title>
<polygon fill="white" stroke="transparent" points="-4,4 -4,-283 1693,-283 1693,4 -4,4"/>
<text text-anchor="start" x="823.51" y="-42.4" font-family="sans-serif" font-weight="bold" font-size="14.00">Legend</text>
<polygon fill="#ffffb3" stroke="transparent" points="610.5,-10 610.5,-30 630.5,-30 630.5,-10 610.5,-10"/>
<text text-anchor="start" x="634.13" y="-15.4" font-family="sans-serif" font-size="14.00"> &#160;Declarations</text>
<polygon fill="#8dd3c7" stroke="transparent" points="723.5,-10 723.5,-30 743.5,-30 743.5,-10 723.5,-10"/>
<text text-anchor="start" x="747.23" y="-15.4" font-family="sans-serif" font-size="14.00"> &#160;Module</text>
<polygon fill="#80b1d3" stroke="transparent" points="809.5,-10 809.5,-30 829.5,-30 829.5,-10 809.5,-10"/>
<text text-anchor="start" x="833.28" y="-15.4" font-family="sans-serif" font-size="14.00"> &#160;Bootstrap</text>
<polygon fill="#fdb462" stroke="transparent" points="906.5,-10 906.5,-30 926.5,-30 926.5,-10 906.5,-10"/>
<text text-anchor="start" x="930.17" y="-15.4" font-family="sans-serif" font-size="14.00"> &#160;Providers</text>
<polygon fill="#fb8072" stroke="transparent" points="1002.5,-10 1002.5,-30 1022.5,-30 1022.5,-10 1002.5,-10"/>
<text text-anchor="start" x="1026.23" y="-15.4" font-family="sans-serif" font-size="14.00"> &#160;Exports</text>
<g id="clust1" class="cluster">
<title>cluster_MainModule</title>
<polygon fill="none" stroke="black" stroke-dasharray="1,5" points="747,-70 747,-271 1021,-271 1021,-70 747,-70"/>
</g>
<g id="clust3" class="cluster">
<title>cluster_MainModule_imports</title>
<polygon fill="none" stroke="black" points="755,-78 755,-206 1013,-206 1013,-78 755,-78"/>
</g>
<g id="clust7" class="cluster">
<title>cluster_NotificationsModule</title>
<polygon fill="none" stroke="black" stroke-dasharray="1,5" points="8,-70 8,-138 739,-138 739,-70 8,-70"/>
</g>
<g id="clust10" class="cluster">
<title>cluster_NotificationsModule_exports</title>
<polygon fill="none" stroke="black" points="581,-78 581,-130 731,-130 731,-78 581,-78"/>
</g>
<g id="clust12" class="cluster">
<title>cluster_NotificationsModule_providers</title>
<polygon fill="none" stroke="black" points="16,-78 16,-130 573,-130 573,-78 16,-78"/>
</g>
<g id="clust13" class="cluster">
<title>cluster_UsersGroupsModule</title>
<polygon fill="none" stroke="black" stroke-dasharray="1,5" points="1029,-146 1029,-214 1399,-214 1399,-146 1029,-146"/>
</g>
<g id="clust16" class="cluster">
<title>cluster_UsersGroupsModule_exports</title>
<polygon fill="none" stroke="black" points="1241,-154 1241,-206 1391,-206 1391,-154 1241,-154"/>
</g>
<g id="clust18" class="cluster">
<title>cluster_UsersGroupsModule_providers</title>
<polygon fill="none" stroke="black" points="1037,-154 1037,-206 1233,-206 1233,-154 1037,-154"/>
</g>
<g id="clust19" class="cluster">
<title>cluster_UsersModule</title>
<polygon fill="none" stroke="black" stroke-dasharray="1,5" points="1407,-146 1407,-214 1681,-214 1681,-146 1407,-146"/>
</g>
<g id="clust22" class="cluster">
<title>cluster_UsersModule_exports</title>
<polygon fill="none" stroke="black" points="1563,-154 1563,-206 1673,-206 1673,-154 1563,-154"/>
</g>
<g id="clust24" class="cluster">
<title>cluster_UsersModule_providers</title>
<polygon fill="none" stroke="black" points="1415,-154 1415,-206 1555,-206 1555,-154 1415,-154"/>
</g>
<!-- NotificationsModule -->
<g id="node1" class="node">
<title>NotificationsModule</title>
<polygon fill="#8dd3c7" stroke="black" points="895.14,-198 892.14,-202 871.14,-202 868.14,-198 762.86,-198 762.86,-162 895.14,-162 895.14,-198"/>
<text text-anchor="middle" x="829" y="-175.8" font-family="Times,serif" font-size="14.00">NotificationsModule</text>
</g>
<!-- MainModule -->
<g id="node4" class="node">
<title>MainModule</title>
<polygon fill="#8dd3c7" stroke="black" points="958.6,-263 955.6,-267 934.6,-267 931.6,-263 869.4,-263 869.4,-227 958.6,-227 958.6,-263"/>
<text text-anchor="middle" x="914" y="-240.8" font-family="Times,serif" font-size="14.00">MainModule</text>
</g>
<!-- NotificationsModule&#45;&gt;MainModule -->
<g id="edge1" class="edge">
<title>NotificationsModule&#45;&gt;MainModule</title>
<path fill="none" stroke="black" d="M882.39,-198.11C882.39,-198.11 882.39,-216.99 882.39,-216.99"/>
<polygon fill="black" stroke="black" points="878.89,-216.99 882.39,-226.99 885.89,-216.99 878.89,-216.99"/>
</g>
<!-- NotificationsService  -->
<g id="node5" class="node">
<title>NotificationsService </title>
<polygon fill="#fb8072" stroke="black" points="723.07,-122 588.93,-122 588.93,-86 723.07,-86 723.07,-122"/>
<text text-anchor="middle" x="656" y="-99.8" font-family="Times,serif" font-size="14.00">NotificationsService </text>
</g>
<!-- NotificationsModule&#45;&gt;NotificationsService  -->
<g id="edge6" class="edge">
<title>NotificationsModule&#45;&gt;NotificationsService </title>
<path fill="none" stroke="black" stroke-dasharray="5,2" d="M762.61,-170C713.82,-170 656,-170 656,-170 656,-170 656,-132.03 656,-132.03"/>
<polygon fill="black" stroke="black" points="659.5,-132.03 656,-122.03 652.5,-132.03 659.5,-132.03"/>
</g>
<!-- UsersGroupsModule -->
<g id="node2" class="node">
<title>UsersGroupsModule</title>
<polygon fill="#8dd3c7" stroke="black" points="895.13,-122 892.13,-126 871.13,-126 868.13,-122 762.87,-122 762.87,-86 895.13,-86 895.13,-122"/>
<text text-anchor="middle" x="829" y="-99.8" font-family="Times,serif" font-size="14.00">UsersGroupsModule</text>
</g>
<!-- UsersGroupsModule&#45;&gt;NotificationsModule -->
<g id="edge4" class="edge">
<title>UsersGroupsModule&#45;&gt;NotificationsModule</title>
<path fill="none" stroke="black" d="M806.89,-122.01C806.89,-122.01 806.89,-151.85 806.89,-151.85"/>
<polygon fill="black" stroke="black" points="803.39,-151.85 806.89,-161.85 810.39,-151.85 803.39,-151.85"/>
</g>
<!-- UsersGroupsModule&#45;&gt;MainModule -->
<g id="edge2" class="edge">
<title>UsersGroupsModule&#45;&gt;MainModule</title>
<path fill="none" stroke="black" d="M895.15,-110C898.98,-110 901.31,-110 901.31,-110 901.31,-110 901.31,-216.79 901.31,-216.79"/>
<polygon fill="black" stroke="black" points="897.81,-216.79 901.31,-226.79 904.81,-216.79 897.81,-216.79"/>
</g>
<!-- UsersGroupsService  -->
<g id="node9" class="node">
<title>UsersGroupsService </title>
<polygon fill="#fb8072" stroke="black" points="1383.06,-198 1248.94,-198 1248.94,-162 1383.06,-162 1383.06,-198"/>
<text text-anchor="middle" x="1316" y="-175.8" font-family="Times,serif" font-size="14.00">UsersGroupsService </text>
</g>
<!-- UsersGroupsModule&#45;&gt;UsersGroupsService  -->
<g id="edge10" class="edge">
<title>UsersGroupsModule&#45;&gt;UsersGroupsService </title>
<path fill="none" stroke="black" stroke-dasharray="5,2" d="M851.11,-122.11C851.11,-131.9 851.11,-142 851.11,-142 851.11,-142 1316,-142 1316,-142 1316,-142 1316,-151.89 1316,-151.89"/>
<polygon fill="black" stroke="black" points="1312.5,-151.89 1316,-161.89 1319.5,-151.89 1312.5,-151.89"/>
</g>
<!-- UsersModule -->
<g id="node3" class="node">
<title>UsersModule</title>
<polygon fill="#8dd3c7" stroke="black" points="1004.92,-122 1001.92,-126 980.92,-126 977.92,-122 913.08,-122 913.08,-86 1004.92,-86 1004.92,-122"/>
<text text-anchor="middle" x="959" y="-99.8" font-family="Times,serif" font-size="14.00">UsersModule</text>
</g>
<!-- UsersModule&#45;&gt;NotificationsModule -->
<g id="edge5" class="edge">
<title>UsersModule&#45;&gt;NotificationsModule</title>
<path fill="none" stroke="black" d="M928.38,-122.03C928.38,-142.77 928.38,-174 928.38,-174 928.38,-174 905.29,-174 905.29,-174"/>
<polygon fill="black" stroke="black" points="905.29,-170.5 895.29,-174 905.29,-177.5 905.29,-170.5"/>
</g>
<!-- UsersModule&#45;&gt;MainModule -->
<g id="edge3" class="edge">
<title>UsersModule&#45;&gt;MainModule</title>
<path fill="none" stroke="black" d="M943.46,-122.14C943.46,-122.14 943.46,-216.93 943.46,-216.93"/>
<polygon fill="black" stroke="black" points="939.96,-216.92 943.46,-226.93 946.96,-216.93 939.96,-216.92"/>
</g>
<!-- UsersService  -->
<g id="node11" class="node">
<title>UsersService </title>
<polygon fill="#fb8072" stroke="black" points="1664.85,-198 1571.15,-198 1571.15,-162 1664.85,-162 1664.85,-198"/>
<text text-anchor="middle" x="1618" y="-175.8" font-family="Times,serif" font-size="14.00">UsersService </text>
</g>
<!-- UsersModule&#45;&gt;UsersService  -->
<g id="edge12" class="edge">
<title>UsersModule&#45;&gt;UsersService </title>
<path fill="none" stroke="black" stroke-dasharray="5,2" d="M1004.82,-98C1154.26,-98 1618,-98 1618,-98 1618,-98 1618,-151.8 1618,-151.8"/>
<polygon fill="black" stroke="black" points="1614.5,-151.8 1618,-161.8 1621.5,-151.8 1614.5,-151.8"/>
</g>
<!-- NotificationsService -->
<g id="node6" class="node">
<title>NotificationsService</title>
<ellipse fill="#fdb462" stroke="black" cx="475" cy="-104" rx="90.32" ry="18"/>
<text text-anchor="middle" x="475" y="-99.8" font-family="Times,serif" font-size="14.00">NotificationsService</text>
</g>
<!-- NotificationsService&#45;&gt;NotificationsModule -->
<g id="edge7" class="edge">
<title>NotificationsService&#45;&gt;NotificationsModule</title>
<path fill="none" stroke="black" d="M475,-122.04C475,-143.66 475,-177 475,-177 475,-177 752.83,-177 752.83,-177"/>
<polygon fill="black" stroke="black" points="752.83,-180.5 762.83,-177 752.83,-173.5 752.83,-180.5"/>
</g>
<!-- PushNotificationService -->
<g id="node7" class="node">
<title>PushNotificationService</title>
<ellipse fill="#fdb462" stroke="black" cx="261" cy="-104" rx="105.37" ry="18"/>
<text text-anchor="middle" x="261" y="-99.8" font-family="Times,serif" font-size="14.00">PushNotificationService</text>
</g>
<!-- PushNotificationService&#45;&gt;NotificationsModule -->
<g id="edge8" class="edge">
<title>PushNotificationService&#45;&gt;NotificationsModule</title>
<path fill="none" stroke="black" d="M261,-122.15C261,-145.76 261,-184 261,-184 261,-184 752.73,-184 752.73,-184"/>
<polygon fill="black" stroke="black" points="752.73,-187.5 762.73,-184 752.73,-180.5 752.73,-187.5"/>
</g>
<!-- SmsService -->
<g id="node8" class="node">
<title>SmsService</title>
<ellipse fill="#fdb462" stroke="black" cx="81" cy="-104" rx="56.76" ry="18"/>
<text text-anchor="middle" x="81" y="-99.8" font-family="Times,serif" font-size="14.00">SmsService</text>
</g>
<!-- SmsService&#45;&gt;NotificationsModule -->
<g id="edge9" class="edge">
<title>SmsService&#45;&gt;NotificationsModule</title>
<path fill="none" stroke="black" d="M81,-122.03C81,-147.51 81,-191 81,-191 81,-191 752.62,-191 752.62,-191"/>
<polygon fill="black" stroke="black" points="752.62,-194.5 762.62,-191 752.62,-187.5 752.62,-194.5"/>
</g>
<!-- UsersGroupsService -->
<g id="node10" class="node">
<title>UsersGroupsService</title>
<ellipse fill="#fdb462" stroke="black" cx="1135" cy="-180" rx="90.31" ry="18"/>
<text text-anchor="middle" x="1135" y="-175.8" font-family="Times,serif" font-size="14.00">UsersGroupsService</text>
</g>
<!-- UsersGroupsService&#45;&gt;UsersGroupsModule -->
<g id="edge11" class="edge">
<title>UsersGroupsService&#45;&gt;UsersGroupsModule</title>
<path fill="none" stroke="black" d="M1049.57,-186C984.95,-186 907.3,-186 907.3,-186 907.3,-186 907.3,-98 907.3,-98 907.3,-98 905.41,-98 905.41,-98"/>
<polygon fill="black" stroke="black" points="905.41,-94.5 895.41,-98 905.41,-101.5 905.41,-94.5"/>
</g>
<!-- UsersService -->
<g id="node12" class="node">
<title>UsersService</title>
<ellipse fill="#fdb462" stroke="black" cx="1485" cy="-180" rx="61.95" ry="18"/>
<text text-anchor="middle" x="1485" y="-175.8" font-family="Times,serif" font-size="14.00">UsersService</text>
</g>
<!-- UsersService&#45;&gt;UsersModule -->
<g id="edge13" class="edge">
<title>UsersService&#45;&gt;UsersModule</title>
<path fill="none" stroke="black" d="M1485,-161.97C1485,-141.23 1485,-110 1485,-110 1485,-110 1014.76,-110 1014.76,-110"/>
<polygon fill="black" stroke="black" points="1014.76,-106.5 1004.76,-110 1014.76,-113.5 1014.76,-106.5"/>
</g>
</g>
</svg>
