<?xml version="1.0" encoding="UTF-8" standalone="no"?>
<!DOCTYPE svg PUBLIC "-//W3C//DTD SVG 1.1//EN"
 "http://www.w3.org/Graphics/SVG/1.1/DTD/svg11.dtd">
<!-- Generated by graphviz version 2.47.0 (20210316.0004)
 -->
<!-- Title: dependencies Pages: 1 -->
<svg width="504pt" height="211pt"
 viewBox="0.00 0.00 504.00 211.00" xmlns="http://www.w3.org/2000/svg" xmlns:xlink="http://www.w3.org/1999/xlink">
<g id="graph0" class="graph" transform="scale(1 1) rotate(0) translate(4 207)">
<title>dependencies</title>
<polygon fill="white" stroke="transparent" points="-4,4 -4,-207 500,-207 500,4 -4,4"/>
<text text-anchor="start" x="227.01" y="-42.4" font-family="sans-serif" font-weight="bold" font-size="14.00">Legend</text>
<polygon fill="#ffffb3" stroke="transparent" points="14,-10 14,-30 34,-30 34,-10 14,-10"/>
<text text-anchor="start" x="37.63" y="-15.4" font-family="sans-serif" font-size="14.00"> &#160;Declarations</text>
<polygon fill="#8dd3c7" stroke="transparent" points="127,-10 127,-30 147,-30 147,-10 127,-10"/>
<text text-anchor="start" x="150.73" y="-15.4" font-family="sans-serif" font-size="14.00"> &#160;Module</text>
<polygon fill="#80b1d3" stroke="transparent" points="213,-10 213,-30 233,-30 233,-10 213,-10"/>
<text text-anchor="start" x="236.78" y="-15.4" font-family="sans-serif" font-size="14.00"> &#160;Bootstrap</text>
<polygon fill="#fdb462" stroke="transparent" points="310,-10 310,-30 330,-30 330,-10 310,-10"/>
<text text-anchor="start" x="333.67" y="-15.4" font-family="sans-serif" font-size="14.00"> &#160;Providers</text>
<polygon fill="#fb8072" stroke="transparent" points="406,-10 406,-30 426,-30 426,-10 406,-10"/>
<text text-anchor="start" x="429.73" y="-15.4" font-family="sans-serif" font-size="14.00"> &#160;Exports</text>
<g id="clust1" class="cluster">
<title>cluster_MainModule</title>
<polygon fill="none" stroke="black" stroke-dasharray="1,5" points="35.5,-70 35.5,-195 460.5,-195 460.5,-70 35.5,-70"/>
</g>
<g id="clust3" class="cluster">
<title>cluster_MainModule_imports</title>
<polygon fill="none" stroke="black" points="43.5,-78 43.5,-130 452.5,-130 452.5,-78 43.5,-78"/>
</g>
<!-- NotificationsModule -->
<g id="node1" class="node">
<title>NotificationsModule</title>
<polygon fill="#8dd3c7" stroke="black" points="444.64,-122 441.64,-126 420.64,-126 417.64,-122 312.36,-122 312.36,-86 444.64,-86 444.64,-122"/>
<text text-anchor="middle" x="378.5" y="-99.8" font-family="Times,serif" font-size="14.00">NotificationsModule</text>
</g>
<!-- MainModule -->
<g id="node4" class="node">
<title>MainModule</title>
<polygon fill="#8dd3c7" stroke="black" points="272.1,-187 269.1,-191 248.1,-191 245.1,-187 182.9,-187 182.9,-151 272.1,-151 272.1,-187"/>
<text text-anchor="middle" x="227.5" y="-164.8" font-family="Times,serif" font-size="14.00">MainModule</text>
</g>
<!-- NotificationsModule&#45;&gt;MainModule -->
<g id="edge1" class="edge">
<title>NotificationsModule&#45;&gt;MainModule</title>
<path fill="none" stroke="black" d="M378.5,-122.11C378.5,-141.34 378.5,-169 378.5,-169 378.5,-169 282.4,-169 282.4,-169"/>
<polygon fill="black" stroke="black" points="282.4,-165.5 272.4,-169 282.4,-172.5 282.4,-165.5"/>
</g>
<!-- UsersGroupsModule -->
<g id="node2" class="node">
<title>UsersGroupsModule</title>
<polygon fill="#8dd3c7" stroke="black" points="293.63,-122 290.63,-126 269.63,-126 266.63,-122 161.37,-122 161.37,-86 293.63,-86 293.63,-122"/>
<text text-anchor="middle" x="227.5" y="-99.8" font-family="Times,serif" font-size="14.00">UsersGroupsModule</text>
</g>
<!-- UsersGroupsModule&#45;&gt;MainModule -->
<g id="edge2" class="edge">
<title>UsersGroupsModule&#45;&gt;MainModule</title>
<path fill="none" stroke="black" d="M227.5,-122.11C227.5,-122.11 227.5,-140.99 227.5,-140.99"/>
<polygon fill="black" stroke="black" points="224,-140.99 227.5,-150.99 231,-140.99 224,-140.99"/>
</g>
<!-- UsersModule -->
<g id="node3" class="node">
<title>UsersModule</title>
<polygon fill="#8dd3c7" stroke="black" points="143.42,-122 140.42,-126 119.42,-126 116.42,-122 51.58,-122 51.58,-86 143.42,-86 143.42,-122"/>
<text text-anchor="middle" x="97.5" y="-99.8" font-family="Times,serif" font-size="14.00">UsersModule</text>
</g>
<!-- UsersModule&#45;&gt;MainModule -->
<g id="edge3" class="edge">
<title>UsersModule&#45;&gt;MainModule</title>
<path fill="none" stroke="black" d="M97.5,-122.11C97.5,-141.34 97.5,-169 97.5,-169 97.5,-169 172.76,-169 172.76,-169"/>
<polygon fill="black" stroke="black" points="172.76,-172.5 182.76,-169 172.76,-165.5 172.76,-172.5"/>
</g>
</g>
</svg>
