<?xml version="1.0" encoding="UTF-8" standalone="no"?>
<!DOCTYPE svg PUBLIC "-//W3C//DTD SVG 1.1//EN"
 "http://www.w3.org/Graphics/SVG/1.1/DTD/svg11.dtd">
<!-- Generated by graphviz version 2.47.0 (20210316.0004)
 -->
<!-- Title: dependencies Pages: 1 -->
<svg width="863pt" height="284pt"
 viewBox="0.00 0.00 863.00 284.00" xmlns="http://www.w3.org/2000/svg" xmlns:xlink="http://www.w3.org/1999/xlink">
<g id="graph0" class="graph" transform="scale(1 1) rotate(0) translate(4 280)">
<title>dependencies</title>
<polygon fill="white" stroke="transparent" points="-4,4 -4,-280 859,-280 859,4 -4,4"/>
<text text-anchor="start" x="406.51" y="-42.4" font-family="sans-serif" font-weight="bold" font-size="14.00">Legend</text>
<polygon fill="#ffffb3" stroke="transparent" points="193.5,-10 193.5,-30 213.5,-30 213.5,-10 193.5,-10"/>
<text text-anchor="start" x="217.13" y="-15.4" font-family="sans-serif" font-size="14.00"> &#160;Declarations</text>
<polygon fill="#8dd3c7" stroke="transparent" points="306.5,-10 306.5,-30 326.5,-30 326.5,-10 306.5,-10"/>
<text text-anchor="start" x="330.23" y="-15.4" font-family="sans-serif" font-size="14.00"> &#160;Module</text>
<polygon fill="#80b1d3" stroke="transparent" points="392.5,-10 392.5,-30 412.5,-30 412.5,-10 392.5,-10"/>
<text text-anchor="start" x="416.28" y="-15.4" font-family="sans-serif" font-size="14.00"> &#160;Bootstrap</text>
<polygon fill="#fdb462" stroke="transparent" points="489.5,-10 489.5,-30 509.5,-30 509.5,-10 489.5,-10"/>
<text text-anchor="start" x="513.17" y="-15.4" font-family="sans-serif" font-size="14.00"> &#160;Providers</text>
<polygon fill="#fb8072" stroke="transparent" points="585.5,-10 585.5,-30 605.5,-30 605.5,-10 585.5,-10"/>
<text text-anchor="start" x="609.23" y="-15.4" font-family="sans-serif" font-size="14.00"> &#160;Exports</text>
<g id="clust1" class="cluster">
<title>cluster_NotificationsModule</title>
<polygon fill="none" stroke="black" stroke-dasharray="1,5" points="8,-70 8,-268 847,-268 847,-70 8,-70"/>
</g>
<g id="clust3" class="cluster">
<title>cluster_NotificationsModule_imports</title>
<polygon fill="none" stroke="black" points="581,-78 581,-130 839,-130 839,-78 581,-78"/>
</g>
<g id="clust4" class="cluster">
<title>cluster_NotificationsModule_exports</title>
<polygon fill="none" stroke="black" points="400,-208 400,-260 550,-260 550,-208 400,-208"/>
</g>
<g id="clust6" class="cluster">
<title>cluster_NotificationsModule_providers</title>
<polygon fill="none" stroke="black" points="16,-78 16,-130 573,-130 573,-78 16,-78"/>
</g>
<!-- UsersGroupsModule -->
<g id="node1" class="node">
<title>UsersGroupsModule</title>
<polygon fill="#8dd3c7" stroke="black" points="831.13,-122 828.13,-126 807.13,-126 804.13,-122 698.87,-122 698.87,-86 831.13,-86 831.13,-122"/>
<text text-anchor="middle" x="765" y="-99.8" font-family="Times,serif" font-size="14.00">UsersGroupsModule</text>
</g>
<!-- NotificationsModule -->
<g id="node3" class="node">
<title>NotificationsModule</title>
<polygon fill="#8dd3c7" stroke="black" points="541.14,-187 538.14,-191 517.14,-191 514.14,-187 408.86,-187 408.86,-151 541.14,-151 541.14,-187"/>
<text text-anchor="middle" x="475" y="-164.8" font-family="Times,serif" font-size="14.00">NotificationsModule</text>
</g>
<!-- UsersGroupsModule&#45;&gt;NotificationsModule -->
<g id="edge1" class="edge">
<title>UsersGroupsModule&#45;&gt;NotificationsModule</title>
<path fill="none" stroke="black" d="M765,-122.28C765,-143.32 765,-175 765,-175 765,-175 551.17,-175 551.17,-175"/>
<polygon fill="black" stroke="black" points="551.17,-171.5 541.17,-175 551.17,-178.5 551.17,-171.5"/>
</g>
<!-- UsersModule -->
<g id="node2" class="node">
<title>UsersModule</title>
<polygon fill="#8dd3c7" stroke="black" points="680.92,-122 677.92,-126 656.92,-126 653.92,-122 589.08,-122 589.08,-86 680.92,-86 680.92,-122"/>
<text text-anchor="middle" x="635" y="-99.8" font-family="Times,serif" font-size="14.00">UsersModule</text>
</g>
<!-- UsersModule&#45;&gt;NotificationsModule -->
<g id="edge2" class="edge">
<title>UsersModule&#45;&gt;NotificationsModule</title>
<path fill="none" stroke="black" d="M635,-122.02C635,-139.37 635,-163 635,-163 635,-163 551.46,-163 551.46,-163"/>
<polygon fill="black" stroke="black" points="551.46,-159.5 541.46,-163 551.46,-166.5 551.46,-159.5"/>
</g>
<!-- NotificationsService  -->
<g id="node4" class="node">
<title>NotificationsService </title>
<polygon fill="#fb8072" stroke="black" points="542.07,-252 407.93,-252 407.93,-216 542.07,-216 542.07,-252"/>
<text text-anchor="middle" x="475" y="-229.8" font-family="Times,serif" font-size="14.00">NotificationsService </text>
</g>
<!-- NotificationsModule&#45;&gt;NotificationsService  -->
<g id="edge3" class="edge">
<title>NotificationsModule&#45;&gt;NotificationsService </title>
<path fill="none" stroke="black" stroke-dasharray="5,2" d="M475,-187.11C475,-187.11 475,-205.99 475,-205.99"/>
<polygon fill="black" stroke="black" points="471.5,-205.99 475,-215.99 478.5,-205.99 471.5,-205.99"/>
</g>
<!-- NotificationsService -->
<g id="node5" class="node">
<title>NotificationsService</title>
<ellipse fill="#fdb462" stroke="black" cx="475" cy="-104" rx="90.32" ry="18"/>
<text text-anchor="middle" x="475" y="-99.8" font-family="Times,serif" font-size="14.00">NotificationsService</text>
</g>
<!-- NotificationsService&#45;&gt;NotificationsModule -->
<g id="edge4" class="edge">
<title>NotificationsService&#45;&gt;NotificationsModule</title>
<path fill="none" stroke="black" d="M475,-122.11C475,-122.11 475,-140.99 475,-140.99"/>
<polygon fill="black" stroke="black" points="471.5,-140.99 475,-150.99 478.5,-140.99 471.5,-140.99"/>
</g>
<!-- PushNotificationService -->
<g id="node6" class="node">
<title>PushNotificationService</title>
<ellipse fill="#fdb462" stroke="black" cx="261" cy="-104" rx="105.37" ry="18"/>
<text text-anchor="middle" x="261" y="-99.8" font-family="Times,serif" font-size="14.00">PushNotificationService</text>
</g>
<!-- PushNotificationService&#45;&gt;NotificationsModule -->
<g id="edge5" class="edge">
<title>PushNotificationService&#45;&gt;NotificationsModule</title>
<path fill="none" stroke="black" d="M261,-122.02C261,-139.37 261,-163 261,-163 261,-163 398.75,-163 398.75,-163"/>
<polygon fill="black" stroke="black" points="398.75,-166.5 408.75,-163 398.75,-159.5 398.75,-166.5"/>
</g>
<!-- SmsService -->
<g id="node7" class="node">
<title>SmsService</title>
<ellipse fill="#fdb462" stroke="black" cx="81" cy="-104" rx="56.76" ry="18"/>
<text text-anchor="middle" x="81" y="-99.8" font-family="Times,serif" font-size="14.00">SmsService</text>
</g>
<!-- SmsService&#45;&gt;NotificationsModule -->
<g id="edge6" class="edge">
<title>SmsService&#45;&gt;NotificationsModule</title>
<path fill="none" stroke="black" d="M81,-122.28C81,-143.32 81,-175 81,-175 81,-175 398.61,-175 398.61,-175"/>
<polygon fill="black" stroke="black" points="398.61,-178.5 408.61,-175 398.61,-171.5 398.61,-178.5"/>
</g>
</g>
</svg>
