<?xml version="1.0" encoding="UTF-8" standalone="no"?>
<!DOCTYPE svg PUBLIC "-//W3C//DTD SVG 1.1//EN"
 "http://www.w3.org/Graphics/SVG/1.1/DTD/svg11.dtd">
<!-- Generated by graphviz version 2.47.0 (20210316.0004)
 -->
<!-- Title: dependencies Pages: 1 -->
<svg width="2735pt" height="431pt"
 viewBox="0.00 0.00 2735.00 431.00" xmlns="http://www.w3.org/2000/svg" xmlns:xlink="http://www.w3.org/1999/xlink">
<g id="graph0" class="graph" transform="scale(1 1) rotate(0) translate(4 427)">
<title>dependencies</title>
<polygon fill="white" stroke="transparent" points="-4,4 -4,-427 2731,-427 2731,4 -4,4"/>
<text text-anchor="start" x="1342.51" y="-42.4" font-family="sans-serif" font-weight="bold" font-size="14.00">Legend</text>
<polygon fill="#ffffb3" stroke="transparent" points="1129.5,-10 1129.5,-30 1149.5,-30 1149.5,-10 1129.5,-10"/>
<text text-anchor="start" x="1153.13" y="-15.4" font-family="sans-serif" font-size="14.00"> &#160;Declarations</text>
<polygon fill="#8dd3c7" stroke="transparent" points="1242.5,-10 1242.5,-30 1262.5,-30 1262.5,-10 1242.5,-10"/>
<text text-anchor="start" x="1266.23" y="-15.4" font-family="sans-serif" font-size="14.00"> &#160;Module</text>
<polygon fill="#80b1d3" stroke="transparent" points="1328.5,-10 1328.5,-30 1348.5,-30 1348.5,-10 1328.5,-10"/>
<text text-anchor="start" x="1352.28" y="-15.4" font-family="sans-serif" font-size="14.00"> &#160;Bootstrap</text>
<polygon fill="#fdb462" stroke="transparent" points="1425.5,-10 1425.5,-30 1445.5,-30 1445.5,-10 1425.5,-10"/>
<text text-anchor="start" x="1449.17" y="-15.4" font-family="sans-serif" font-size="14.00"> &#160;Providers</text>
<polygon fill="#fb8072" stroke="transparent" points="1521.5,-10 1521.5,-30 1541.5,-30 1541.5,-10 1521.5,-10"/>
<text text-anchor="start" x="1545.23" y="-15.4" font-family="sans-serif" font-size="14.00"> &#160;Exports</text>
<g id="clust1" class="cluster">
<title>cluster_AppModule</title>
<polygon fill="none" stroke="black" stroke-dasharray="1,5" points="1935,-290 1935,-415 2180,-415 2180,-290 1935,-290"/>
</g>
<g id="clust3" class="cluster">
<title>cluster_AppModule_imports</title>
<polygon fill="none" stroke="black" points="1943,-298 1943,-350 2172,-350 2172,-298 1943,-298"/>
</g>
<g id="clust7" class="cluster">
<title>cluster_ArticlesModule</title>
<polygon fill="none" stroke="black" stroke-dasharray="1,5" points="1164,-70 1164,-282 1472,-282 1472,-70 1164,-70"/>
</g>
<g id="clust10" class="cluster">
<title>cluster_ArticlesModule_exports</title>
<polygon fill="none" stroke="black" points="1306,-222 1306,-274 1428,-274 1428,-222 1306,-222"/>
</g>
<g id="clust12" class="cluster">
<title>cluster_ArticlesModule_providers</title>
<polygon fill="none" stroke="black" points="1172,-78 1172,-130 1464,-130 1464,-78 1172,-78"/>
</g>
<g id="clust13" class="cluster">
<title>cluster_AuthModule</title>
<polygon fill="none" stroke="black" stroke-dasharray="1,5" points="1798,-146 1798,-274 2196,-274 2196,-146 1798,-146"/>
</g>
<g id="clust15" class="cluster">
<title>cluster_AuthModule_imports</title>
<polygon fill="none" stroke="black" points="2080,-154 2080,-206 2188,-206 2188,-154 2080,-154"/>
</g>
<g id="clust18" class="cluster">
<title>cluster_AuthModule_providers</title>
<polygon fill="none" stroke="black" points="1806,-154 1806,-206 2072,-206 2072,-154 1806,-154"/>
</g>
<g id="clust19" class="cluster">
<title>cluster_AuthorsModule</title>
<polygon fill="none" stroke="black" stroke-dasharray="1,5" points="1480,-146 1480,-358 1790,-358 1790,-146 1480,-146"/>
</g>
<g id="clust22" class="cluster">
<title>cluster_AuthorsModule_exports</title>
<polygon fill="none" stroke="black" points="1657,-298 1657,-350 1779,-350 1779,-298 1657,-298"/>
</g>
<g id="clust24" class="cluster">
<title>cluster_AuthorsModule_providers</title>
<polygon fill="none" stroke="black" points="1488,-154 1488,-206 1782,-206 1782,-154 1488,-154"/>
</g>
<g id="clust25" class="cluster">
<title>cluster_CommentsModule</title>
<polygon fill="none" stroke="black" stroke-dasharray="1,5" points="803,-70 803,-282 1156,-282 1156,-70 803,-70"/>
</g>
<g id="clust28" class="cluster">
<title>cluster_CommentsModule_exports</title>
<polygon fill="none" stroke="black" points="871,-222 871,-274 1009,-274 1009,-222 871,-222"/>
</g>
<g id="clust30" class="cluster">
<title>cluster_CommentsModule_providers</title>
<polygon fill="none" stroke="black" points="811,-78 811,-130 1148,-130 1148,-78 811,-78"/>
</g>
<g id="clust37" class="cluster">
<title>cluster_CoreModule</title>
<polygon fill="none" stroke="black" stroke-dasharray="1,5" points="2204,-214 2204,-282 2624,-282 2624,-214 2204,-214"/>
</g>
<g id="clust39" class="cluster">
<title>cluster_CoreModule_imports</title>
<polygon fill="none" stroke="black" points="2212,-222 2212,-274 2616,-274 2616,-222 2212,-222"/>
</g>
<g id="clust49" class="cluster">
<title>cluster_LikesModule</title>
<polygon fill="none" stroke="black" stroke-dasharray="1,5" points="8,-146 8,-358 795,-358 795,-146 8,-146"/>
</g>
<g id="clust52" class="cluster">
<title>cluster_LikesModule_exports</title>
<polygon fill="none" stroke="black" points="463,-298 463,-350 777,-350 777,-298 463,-298"/>
</g>
<g id="clust54" class="cluster">
<title>cluster_LikesModule_providers</title>
<polygon fill="none" stroke="black" points="16,-154 16,-206 787,-206 787,-154 16,-154"/>
</g>
<g id="clust61" class="cluster">
<title>cluster_SearchEngineModule</title>
<polygon fill="none" stroke="black" stroke-dasharray="1,5" points="2335,-290 2335,-358 2719,-358 2719,-290 2335,-290"/>
</g>
<g id="clust64" class="cluster">
<title>cluster_SearchEngineModule_exports</title>
<polygon fill="none" stroke="black" points="2555,-298 2555,-350 2711,-350 2711,-298 2555,-298"/>
</g>
<g id="clust66" class="cluster">
<title>cluster_SearchEngineModule_providers</title>
<polygon fill="none" stroke="black" points="2343,-298 2343,-350 2547,-350 2547,-298 2343,-298"/>
</g>
<g id="clust67" class="cluster">
<title>cluster_UsersModule</title>
<polygon fill="none" stroke="black" stroke-dasharray="1,5" points="1790,-70 1790,-138 2411,-138 2411,-70 1790,-70"/>
</g>
<g id="clust70" class="cluster">
<title>cluster_UsersModule_exports</title>
<polygon fill="none" stroke="black" points="2200,-78 2200,-130 2403,-130 2403,-78 2200,-78"/>
</g>
<g id="clust72" class="cluster">
<title>cluster_UsersModule_providers</title>
<polygon fill="none" stroke="black" points="1798,-78 1798,-130 2192,-130 2192,-78 1798,-78"/>
</g>
<!-- CoreModule -->
<g id="node1" class="node">
<title>CoreModule</title>
<polygon fill="#8dd3c7" stroke="black" points="2164.26,-342 2161.26,-346 2140.26,-346 2137.26,-342 2077.74,-342 2077.74,-306 2164.26,-306 2164.26,-342"/>
<text text-anchor="middle" x="2121" y="-319.8" font-family="Times,serif" font-size="14.00">CoreModule</text>
</g>
<!-- AppModule -->
<g id="node3" class="node">
<title>AppModule</title>
<polygon fill="#8dd3c7" stroke="black" points="2104.66,-407 2101.66,-411 2080.66,-411 2077.66,-407 2021.34,-407 2021.34,-371 2104.66,-371 2104.66,-407"/>
<text text-anchor="middle" x="2063" y="-384.8" font-family="Times,serif" font-size="14.00">AppModule</text>
</g>
<!-- CoreModule&#45;&gt;AppModule -->
<g id="edge1" class="edge">
<title>CoreModule&#45;&gt;AppModule</title>
<path fill="none" stroke="black" d="M2091.22,-342.11C2091.22,-342.11 2091.22,-360.99 2091.22,-360.99"/>
<polygon fill="black" stroke="black" points="2087.72,-360.99 2091.22,-370.99 2094.72,-360.99 2087.72,-360.99"/>
</g>
<!-- ModulesModule -->
<g id="node2" class="node">
<title>ModulesModule</title>
<polygon fill="#8dd3c7" stroke="black" points="2059.05,-342 2056.05,-346 2035.05,-346 2032.05,-342 1950.95,-342 1950.95,-306 2059.05,-306 2059.05,-342"/>
<text text-anchor="middle" x="2005" y="-319.8" font-family="Times,serif" font-size="14.00">ModulesModule</text>
</g>
<!-- ModulesModule&#45;&gt;AppModule -->
<g id="edge2" class="edge">
<title>ModulesModule&#45;&gt;AppModule</title>
<path fill="none" stroke="black" d="M2040.22,-342.11C2040.22,-342.11 2040.22,-360.99 2040.22,-360.99"/>
<polygon fill="black" stroke="black" points="2036.72,-360.99 2040.22,-370.99 2043.72,-360.99 2036.72,-360.99"/>
</g>
<!-- ArticlesService  -->
<g id="node4" class="node">
<title>ArticlesService </title>
<polygon fill="#fb8072" stroke="black" points="1419.79,-266 1314.21,-266 1314.21,-230 1419.79,-230 1419.79,-266"/>
<text text-anchor="middle" x="1367" y="-243.8" font-family="Times,serif" font-size="14.00">ArticlesService </text>
</g>
<!-- ArticlesModule -->
<g id="node5" class="node">
<title>ArticlesModule</title>
<polygon fill="#8dd3c7" stroke="black" points="1337.86,-198 1334.86,-202 1313.86,-202 1310.86,-198 1234.14,-198 1234.14,-162 1337.86,-162 1337.86,-198"/>
<text text-anchor="middle" x="1286" y="-175.8" font-family="Times,serif" font-size="14.00">ArticlesModule</text>
</g>
<!-- ArticlesModule&#45;&gt;ModulesModule -->
<g id="edge27" class="edge">
<title>ArticlesModule&#45;&gt;ModulesModule</title>
<path fill="none" stroke="black" d="M1329.99,-198.17C1329.99,-202.05 1329.99,-205 1329.99,-205 1329.99,-205 1959.13,-205 1959.13,-205 1959.13,-205 1959.13,-295.93 1959.13,-295.93"/>
<polygon fill="black" stroke="black" points="1955.63,-295.93 1959.13,-305.93 1962.63,-295.93 1955.63,-295.93"/>
</g>
<!-- ArticlesModule&#45;&gt;ArticlesService  -->
<g id="edge3" class="edge">
<title>ArticlesModule&#45;&gt;ArticlesService </title>
<path fill="none" stroke="black" stroke-dasharray="5,2" d="M1322.05,-198.22C1322.05,-198.22 1322.05,-219.73 1322.05,-219.73"/>
<polygon fill="black" stroke="black" points="1318.55,-219.73 1322.05,-229.73 1325.55,-219.73 1318.55,-219.73"/>
</g>
<!-- LikesModule -->
<g id="node23" class="node">
<title>LikesModule</title>
<polygon fill="#8dd3c7" stroke="black" points="737.15,-266 734.15,-270 713.15,-270 710.15,-266 646.85,-266 646.85,-230 737.15,-230 737.15,-266"/>
<text text-anchor="middle" x="692" y="-243.8" font-family="Times,serif" font-size="14.00">LikesModule</text>
</g>
<!-- ArticlesModule&#45;&gt;LikesModule -->
<g id="edge19" class="edge">
<title>ArticlesModule&#45;&gt;LikesModule</title>
<path fill="none" stroke="black" d="M1274.09,-198.11C1274.09,-207.9 1274.09,-218 1274.09,-218 1274.09,-218 707.11,-218 707.11,-218 707.11,-218 707.11,-219.86 707.11,-219.86"/>
<polygon fill="black" stroke="black" points="703.61,-219.86 707.11,-229.86 710.61,-219.86 703.61,-219.86"/>
</g>
<!-- ArticleRepo -->
<g id="node6" class="node">
<title>ArticleRepo</title>
<ellipse fill="#fdb462" stroke="black" cx="1398" cy="-104" rx="58.46" ry="18"/>
<text text-anchor="middle" x="1398" y="-99.8" font-family="Times,serif" font-size="14.00">ArticleRepo</text>
</g>
<!-- ArticleRepo&#45;&gt;ArticlesModule -->
<g id="edge4" class="edge">
<title>ArticleRepo&#45;&gt;ArticlesModule</title>
<path fill="none" stroke="black" d="M1339.52,-104C1333.62,-104 1329.74,-104 1329.74,-104 1329.74,-104 1329.74,-151.99 1329.74,-151.99"/>
<polygon fill="black" stroke="black" points="1326.24,-151.99 1329.74,-161.99 1333.24,-151.99 1326.24,-151.99"/>
</g>
<!-- ArticlesService -->
<g id="node7" class="node">
<title>ArticlesService</title>
<ellipse fill="#fdb462" stroke="black" cx="1251" cy="-104" rx="70.62" ry="18"/>
<text text-anchor="middle" x="1251" y="-99.8" font-family="Times,serif" font-size="14.00">ArticlesService</text>
</g>
<!-- ArticlesService&#45;&gt;ArticlesModule -->
<g id="edge5" class="edge">
<title>ArticlesService&#45;&gt;ArticlesModule</title>
<path fill="none" stroke="black" d="M1277.81,-120.87C1277.81,-120.87 1277.81,-151.85 1277.81,-151.85"/>
<polygon fill="black" stroke="black" points="1274.31,-151.85 1277.81,-161.85 1281.31,-151.85 1274.31,-151.85"/>
</g>
<!-- UsersModule -->
<g id="node8" class="node">
<title>UsersModule</title>
<polygon fill="#8dd3c7" stroke="black" points="2179.92,-198 2176.92,-202 2155.92,-202 2152.92,-198 2088.08,-198 2088.08,-162 2179.92,-162 2179.92,-198"/>
<text text-anchor="middle" x="2134" y="-175.8" font-family="Times,serif" font-size="14.00">UsersModule</text>
</g>
<!-- UsersModule&#45;&gt;ModulesModule -->
<g id="edge32" class="edge">
<title>UsersModule&#45;&gt;ModulesModule</title>
<path fill="none" stroke="black" d="M2088.22,-186C2077.97,-186 2070.07,-186 2070.07,-186 2070.07,-186 2070.07,-324 2070.07,-324 2070.07,-324 2068.99,-324 2068.99,-324"/>
<polygon fill="black" stroke="black" points="2069.32,-320.5 2059.32,-324 2069.32,-327.5 2069.32,-320.5"/>
</g>
<!-- AuthModule -->
<g id="node9" class="node">
<title>AuthModule</title>
<polygon fill="#8dd3c7" stroke="black" points="2048.55,-266 2045.55,-270 2024.55,-270 2021.55,-266 1961.45,-266 1961.45,-230 2048.55,-230 2048.55,-266"/>
<text text-anchor="middle" x="2005" y="-243.8" font-family="Times,serif" font-size="14.00">AuthModule</text>
</g>
<!-- UsersModule&#45;&gt;AuthModule -->
<g id="edge6" class="edge">
<title>UsersModule&#45;&gt;AuthModule</title>
<path fill="none" stroke="black" d="M2118.73,-198.27C2118.73,-216.56 2118.73,-242 2118.73,-242 2118.73,-242 2058.64,-242 2058.64,-242"/>
<polygon fill="black" stroke="black" points="2058.64,-238.5 2048.64,-242 2058.64,-245.5 2058.64,-238.5"/>
</g>
<!-- AuthorsModule -->
<g id="node12" class="node">
<title>AuthorsModule</title>
<polygon fill="#8dd3c7" stroke="black" points="1770.15,-266 1767.15,-270 1746.15,-270 1743.15,-266 1665.85,-266 1665.85,-230 1770.15,-230 1770.15,-266"/>
<text text-anchor="middle" x="1718" y="-243.8" font-family="Times,serif" font-size="14.00">AuthorsModule</text>
</g>
<!-- UsersModule&#45;&gt;AuthorsModule -->
<g id="edge9" class="edge">
<title>UsersModule&#45;&gt;AuthorsModule</title>
<path fill="none" stroke="black" d="M2103.51,-198.15C2103.51,-210.27 2103.51,-224 2103.51,-224 2103.51,-224 1735.44,-224 1735.44,-224 1735.44,-224 1735.44,-224.58 1735.44,-224.58"/>
<polygon fill="black" stroke="black" points="1731.94,-219.81 1735.44,-229.81 1738.94,-219.81 1731.94,-219.81"/>
</g>
<!-- UserRepo  -->
<g id="node32" class="node">
<title>UserRepo </title>
<polygon fill="#fb8072" stroke="black" points="2394.98,-122 2319.02,-122 2319.02,-86 2394.98,-86 2394.98,-122"/>
<text text-anchor="middle" x="2357" y="-99.8" font-family="Times,serif" font-size="14.00">UserRepo </text>
</g>
<!-- UsersModule&#45;&gt;UserRepo  -->
<g id="edge35" class="edge">
<title>UsersModule&#45;&gt;UserRepo </title>
<path fill="none" stroke="black" stroke-dasharray="5,2" d="M2179.71,-186C2236.17,-186 2324.84,-186 2324.84,-186 2324.84,-186 2324.84,-132.2 2324.84,-132.2"/>
<polygon fill="black" stroke="black" points="2328.34,-132.2 2324.84,-122.2 2321.34,-132.2 2328.34,-132.2"/>
</g>
<!-- UsersService  -->
<g id="node33" class="node">
<title>UsersService </title>
<polygon fill="#fb8072" stroke="black" points="2301.85,-122 2208.15,-122 2208.15,-86 2301.85,-86 2301.85,-122"/>
<text text-anchor="middle" x="2255" y="-99.8" font-family="Times,serif" font-size="14.00">UsersService </text>
</g>
<!-- UsersModule&#45;&gt;UsersService  -->
<g id="edge36" class="edge">
<title>UsersModule&#45;&gt;UsersService </title>
<path fill="none" stroke="black" stroke-dasharray="5,2" d="M2180.04,-174C2197.82,-174 2213.95,-174 2213.95,-174 2213.95,-174 2213.95,-132.03 2213.95,-132.03"/>
<polygon fill="black" stroke="black" points="2217.45,-132.03 2213.95,-122.03 2210.45,-132.03 2217.45,-132.03"/>
</g>
<!-- AuthModule&#45;&gt;ModulesModule -->
<g id="edge28" class="edge">
<title>AuthModule&#45;&gt;ModulesModule</title>
<path fill="none" stroke="black" d="M2005,-266.01C2005,-266.01 2005,-295.85 2005,-295.85"/>
<polygon fill="black" stroke="black" points="2001.5,-295.85 2005,-305.85 2008.5,-295.85 2001.5,-295.85"/>
</g>
<!-- AuthService -->
<g id="node10" class="node">
<title>AuthService</title>
<ellipse fill="#fdb462" stroke="black" cx="2005" cy="-180" rx="59.11" ry="18"/>
<text text-anchor="middle" x="2005" y="-175.8" font-family="Times,serif" font-size="14.00">AuthService</text>
</g>
<!-- AuthService&#45;&gt;AuthModule -->
<g id="edge7" class="edge">
<title>AuthService&#45;&gt;AuthModule</title>
<path fill="none" stroke="black" d="M2005,-198.22C2005,-198.22 2005,-219.73 2005,-219.73"/>
<polygon fill="black" stroke="black" points="2001.5,-219.73 2005,-229.73 2008.5,-219.73 2001.5,-219.73"/>
</g>
<!-- JwtStrategy -->
<g id="node11" class="node">
<title>JwtStrategy</title>
<ellipse fill="#fdb462" stroke="black" cx="1871" cy="-180" rx="56.76" ry="18"/>
<text text-anchor="middle" x="1871" y="-175.8" font-family="Times,serif" font-size="14.00">JwtStrategy</text>
</g>
<!-- JwtStrategy&#45;&gt;AuthModule -->
<g id="edge8" class="edge">
<title>JwtStrategy&#45;&gt;AuthModule</title>
<path fill="none" stroke="black" d="M1871,-198.27C1871,-216.56 1871,-242 1871,-242 1871,-242 1951.12,-242 1951.12,-242"/>
<polygon fill="black" stroke="black" points="1951.12,-245.5 1961.12,-242 1951.12,-238.5 1951.12,-245.5"/>
</g>
<!-- AuthorsModule&#45;&gt;ModulesModule -->
<g id="edge29" class="edge">
<title>AuthorsModule&#45;&gt;ModulesModule</title>
<path fill="none" stroke="black" d="M1770.29,-254C1840.06,-254 1954.93,-254 1954.93,-254 1954.93,-254 1954.93,-295.97 1954.93,-295.97"/>
<polygon fill="black" stroke="black" points="1951.43,-295.97 1954.93,-305.97 1958.43,-295.97 1951.43,-295.97"/>
</g>
<!-- AuthorsService  -->
<g id="node13" class="node">
<title>AuthorsService </title>
<polygon fill="#fb8072" stroke="black" points="1771.08,-342 1664.92,-342 1664.92,-306 1771.08,-306 1771.08,-342"/>
<text text-anchor="middle" x="1718" y="-319.8" font-family="Times,serif" font-size="14.00">AuthorsService </text>
</g>
<!-- AuthorsModule&#45;&gt;AuthorsService  -->
<g id="edge10" class="edge">
<title>AuthorsModule&#45;&gt;AuthorsService </title>
<path fill="none" stroke="black" stroke-dasharray="5,2" d="M1718,-266.01C1718,-266.01 1718,-295.85 1718,-295.85"/>
<polygon fill="black" stroke="black" points="1714.5,-295.85 1718,-305.85 1721.5,-295.85 1714.5,-295.85"/>
</g>
<!-- AuthorRepo -->
<g id="node14" class="node">
<title>AuthorRepo</title>
<ellipse fill="#fdb462" stroke="black" cx="1715" cy="-180" rx="58.55" ry="18"/>
<text text-anchor="middle" x="1715" y="-175.8" font-family="Times,serif" font-size="14.00">AuthorRepo</text>
</g>
<!-- AuthorRepo&#45;&gt;AuthorsModule -->
<g id="edge11" class="edge">
<title>AuthorRepo&#45;&gt;AuthorsModule</title>
<path fill="none" stroke="black" d="M1700.56,-197.51C1700.56,-197.51 1700.56,-219.84 1700.56,-219.84"/>
<polygon fill="black" stroke="black" points="1697.06,-219.84 1700.56,-229.84 1704.06,-219.84 1697.06,-219.84"/>
</g>
<!-- AuthorsService -->
<g id="node15" class="node">
<title>AuthorsService</title>
<ellipse fill="#fdb462" stroke="black" cx="1567" cy="-180" rx="71.21" ry="18"/>
<text text-anchor="middle" x="1567" y="-175.8" font-family="Times,serif" font-size="14.00">AuthorsService</text>
</g>
<!-- AuthorsService&#45;&gt;AuthorsModule -->
<g id="edge12" class="edge">
<title>AuthorsService&#45;&gt;AuthorsModule</title>
<path fill="none" stroke="black" d="M1567,-198.22C1567,-218.37 1567,-248 1567,-248 1567,-248 1655.61,-248 1655.61,-248"/>
<polygon fill="black" stroke="black" points="1655.61,-251.5 1665.61,-248 1655.61,-244.5 1655.61,-251.5"/>
</g>
<!-- CommentsService  -->
<g id="node16" class="node">
<title>CommentsService </title>
<polygon fill="#fb8072" stroke="black" points="1001.15,-266 878.85,-266 878.85,-230 1001.15,-230 1001.15,-266"/>
<text text-anchor="middle" x="940" y="-243.8" font-family="Times,serif" font-size="14.00">CommentsService </text>
</g>
<!-- CommentsModule -->
<g id="node17" class="node">
<title>CommentsModule</title>
<polygon fill="#8dd3c7" stroke="black" points="1000.22,-198 997.22,-202 976.22,-202 973.22,-198 879.78,-198 879.78,-162 1000.22,-162 1000.22,-198"/>
<text text-anchor="middle" x="940" y="-175.8" font-family="Times,serif" font-size="14.00">CommentsModule</text>
</g>
<!-- CommentsModule&#45;&gt;ModulesModule -->
<g id="edge30" class="edge">
<title>CommentsModule&#45;&gt;ModulesModule</title>
<path fill="none" stroke="black" d="M960.04,-198.03C960.04,-204.85 960.04,-211 960.04,-211 960.04,-211 1957.03,-211 1957.03,-211 1957.03,-211 1957.03,-295.84 1957.03,-295.84"/>
<polygon fill="black" stroke="black" points="1953.53,-295.84 1957.03,-305.84 1960.53,-295.84 1953.53,-295.84"/>
</g>
<!-- CommentsModule&#45;&gt;CommentsService  -->
<g id="edge13" class="edge">
<title>CommentsModule&#45;&gt;CommentsService </title>
<path fill="none" stroke="black" stroke-dasharray="5,2" d="M919.96,-198.22C919.96,-198.22 919.96,-219.73 919.96,-219.73"/>
<polygon fill="black" stroke="black" points="916.46,-219.73 919.96,-229.73 923.46,-219.73 916.46,-219.73"/>
</g>
<!-- CommentsModule&#45;&gt;LikesModule -->
<g id="edge20" class="edge">
<title>CommentsModule&#45;&gt;LikesModule</title>
<path fill="none" stroke="black" d="M879.84,-180C862.92,-180 849.04,-180 849.04,-180 849.04,-180 849.04,-248 849.04,-248 849.04,-248 747.42,-248 747.42,-248"/>
<polygon fill="black" stroke="black" points="747.42,-244.5 737.42,-248 747.42,-251.5 747.42,-244.5"/>
</g>
<!-- CommentRepo -->
<g id="node18" class="node">
<title>CommentRepo</title>
<ellipse fill="#fdb462" stroke="black" cx="1070" cy="-104" rx="69.52" ry="18"/>
<text text-anchor="middle" x="1070" y="-99.8" font-family="Times,serif" font-size="14.00">CommentRepo</text>
</g>
<!-- CommentRepo&#45;&gt;CommentsModule -->
<g id="edge14" class="edge">
<title>CommentRepo&#45;&gt;CommentsModule</title>
<path fill="none" stroke="black" d="M1000.48,-104C994.97,-104 991.47,-104 991.47,-104 991.47,-104 991.47,-151.99 991.47,-151.99"/>
<polygon fill="black" stroke="black" points="987.97,-151.99 991.47,-161.99 994.97,-151.99 987.97,-151.99"/>
</g>
<!-- CommentsService -->
<g id="node19" class="node">
<title>CommentsService</title>
<ellipse fill="#fdb462" stroke="black" cx="901" cy="-104" rx="81.68" ry="18"/>
<text text-anchor="middle" x="901" y="-99.8" font-family="Times,serif" font-size="14.00">CommentsService</text>
</g>
<!-- CommentsService&#45;&gt;CommentsModule -->
<g id="edge15" class="edge">
<title>CommentsService&#45;&gt;CommentsModule</title>
<path fill="none" stroke="black" d="M931.37,-120.87C931.37,-120.87 931.37,-151.85 931.37,-151.85"/>
<polygon fill="black" stroke="black" points="927.87,-151.85 931.37,-161.85 934.87,-151.85 927.87,-151.85"/>
</g>
<!-- ConfigsModule -->
<g id="node20" class="node">
<title>ConfigsModule</title>
<polygon fill="#8dd3c7" stroke="black" points="2451.88,-266 2448.88,-270 2427.88,-270 2424.88,-266 2348.12,-266 2348.12,-230 2451.88,-230 2451.88,-266"/>
<text text-anchor="middle" x="2400" y="-243.8" font-family="Times,serif" font-size="14.00">ConfigsModule</text>
</g>
<!-- ConfigsModule&#45;&gt;CoreModule -->
<g id="edge16" class="edge">
<title>ConfigsModule&#45;&gt;CoreModule</title>
<path fill="none" stroke="black" d="M2347.95,-248C2342.69,-248 2339.24,-248 2339.24,-248 2339.24,-248 2339.24,-324 2339.24,-324 2339.24,-324 2174.38,-324 2174.38,-324"/>
<polygon fill="black" stroke="black" points="2174.38,-320.5 2164.38,-324 2174.38,-327.5 2174.38,-320.5"/>
</g>
<!-- DatabaseModule -->
<g id="node21" class="node">
<title>DatabaseModule</title>
<polygon fill="#8dd3c7" stroke="black" points="2330.35,-266 2327.35,-270 2306.35,-270 2303.35,-266 2219.65,-266 2219.65,-230 2330.35,-230 2330.35,-266"/>
<text text-anchor="middle" x="2275" y="-243.8" font-family="Times,serif" font-size="14.00">DatabaseModule</text>
</g>
<!-- DatabaseModule&#45;&gt;CoreModule -->
<g id="edge17" class="edge">
<title>DatabaseModule&#45;&gt;CoreModule</title>
<path fill="none" stroke="black" d="M2219.25,-254C2179.82,-254 2133.94,-254 2133.94,-254 2133.94,-254 2133.94,-295.97 2133.94,-295.97"/>
<polygon fill="black" stroke="black" points="2130.44,-295.97 2133.94,-305.97 2137.44,-295.97 2130.44,-295.97"/>
</g>
<!-- SearchEngineModule -->
<g id="node22" class="node">
<title>SearchEngineModule</title>
<polygon fill="#8dd3c7" stroke="black" points="2607.79,-266 2604.79,-270 2583.79,-270 2580.79,-266 2470.21,-266 2470.21,-230 2607.79,-230 2607.79,-266"/>
<text text-anchor="middle" x="2539" y="-243.8" font-family="Times,serif" font-size="14.00">SearchEngineModule</text>
</g>
<!-- SearchEngineModule&#45;&gt;CoreModule -->
<g id="edge18" class="edge">
<title>SearchEngineModule&#45;&gt;CoreModule</title>
<path fill="none" stroke="black" d="M2493.11,-266.04C2493.11,-278.56 2493.11,-293 2493.11,-293 2493.11,-293 2149.16,-293 2149.16,-293 2149.16,-293 2149.16,-295.97 2149.16,-295.97"/>
<polygon fill="black" stroke="black" points="2145.66,-295.97 2149.16,-305.97 2152.66,-295.97 2145.66,-295.97"/>
</g>
<!-- SearchEngineService  -->
<g id="node30" class="node">
<title>SearchEngineService </title>
<polygon fill="#fb8072" stroke="black" points="2702.72,-342 2563.28,-342 2563.28,-306 2702.72,-306 2702.72,-342"/>
<text text-anchor="middle" x="2633" y="-319.8" font-family="Times,serif" font-size="14.00">SearchEngineService </text>
</g>
<!-- SearchEngineModule&#45;&gt;SearchEngineService  -->
<g id="edge33" class="edge">
<title>SearchEngineModule&#45;&gt;SearchEngineService </title>
<path fill="none" stroke="black" stroke-dasharray="5,2" d="M2585.52,-266.01C2585.52,-266.01 2585.52,-295.85 2585.52,-295.85"/>
<polygon fill="black" stroke="black" points="2582.02,-295.85 2585.52,-305.85 2589.02,-295.85 2582.02,-295.85"/>
</g>
<!-- LikesModule&#45;&gt;ModulesModule -->
<g id="edge31" class="edge">
<title>LikesModule&#45;&gt;ModulesModule</title>
<path fill="none" stroke="black" d="M707.11,-266.24C707.11,-273.43 707.11,-280 707.11,-280 707.11,-280 1952.83,-280 1952.83,-280 1952.83,-280 1952.83,-295.85 1952.83,-295.85"/>
<polygon fill="black" stroke="black" points="1949.33,-295.85 1952.83,-305.85 1956.33,-295.85 1949.33,-295.85"/>
</g>
<!-- LikeArticlesService  -->
<g id="node24" class="node">
<title>LikeArticlesService </title>
<polygon fill="#fb8072" stroke="black" points="768.95,-342 637.05,-342 637.05,-306 768.95,-306 768.95,-342"/>
<text text-anchor="middle" x="703" y="-319.8" font-family="Times,serif" font-size="14.00">LikeArticlesService </text>
</g>
<!-- LikesModule&#45;&gt;LikeArticlesService  -->
<g id="edge21" class="edge">
<title>LikesModule&#45;&gt;LikeArticlesService </title>
<path fill="none" stroke="black" stroke-dasharray="5,2" d="M676.89,-266.01C676.89,-266.01 676.89,-295.85 676.89,-295.85"/>
<polygon fill="black" stroke="black" points="673.39,-295.85 676.89,-305.85 680.39,-295.85 673.39,-295.85"/>
</g>
<!-- LikeCommentsService  -->
<g id="node25" class="node">
<title>LikeCommentsService </title>
<polygon fill="#fb8072" stroke="black" points="618.8,-342 471.2,-342 471.2,-306 618.8,-306 618.8,-342"/>
<text text-anchor="middle" x="545" y="-319.8" font-family="Times,serif" font-size="14.00">LikeCommentsService </text>
</g>
<!-- LikesModule&#45;&gt;LikeCommentsService  -->
<g id="edge22" class="edge">
<title>LikesModule&#45;&gt;LikeCommentsService </title>
<path fill="none" stroke="black" stroke-dasharray="5,2" d="M646.77,-259C628.59,-259 611.85,-259 611.85,-259 611.85,-259 611.85,-295.89 611.85,-295.89"/>
<polygon fill="black" stroke="black" points="608.35,-295.89 611.85,-305.89 615.35,-295.89 608.35,-295.89"/>
</g>
<!-- LikeArticleRepo -->
<g id="node26" class="node">
<title>LikeArticleRepo</title>
<ellipse fill="#fdb462" stroke="black" cx="294" cy="-180" rx="75.86" ry="18"/>
<text text-anchor="middle" x="294" y="-175.8" font-family="Times,serif" font-size="14.00">LikeArticleRepo</text>
</g>
<!-- LikeArticleRepo&#45;&gt;LikesModule -->
<g id="edge23" class="edge">
<title>LikeArticleRepo&#45;&gt;LikesModule</title>
<path fill="none" stroke="black" d="M294,-198.11C294,-217.34 294,-245 294,-245 294,-245 636.73,-245 636.73,-245"/>
<polygon fill="black" stroke="black" points="636.73,-248.5 646.73,-245 636.73,-241.5 636.73,-248.5"/>
</g>
<!-- LikeArticlesService -->
<g id="node27" class="node">
<title>LikeArticlesService</title>
<ellipse fill="#fdb462" stroke="black" cx="112" cy="-180" rx="88.01" ry="18"/>
<text text-anchor="middle" x="112" y="-175.8" font-family="Times,serif" font-size="14.00">LikeArticlesService</text>
</g>
<!-- LikeArticlesService&#45;&gt;LikesModule -->
<g id="edge24" class="edge">
<title>LikeArticlesService&#45;&gt;LikesModule</title>
<path fill="none" stroke="black" d="M112,-198.17C112,-219.5 112,-252 112,-252 112,-252 636.49,-252 636.49,-252"/>
<polygon fill="black" stroke="black" points="636.49,-255.5 646.49,-252 636.49,-248.5 636.49,-255.5"/>
</g>
<!-- LikeCommentRepo -->
<g id="node28" class="node">
<title>LikeCommentRepo</title>
<ellipse fill="#fdb462" stroke="black" cx="692" cy="-180" rx="87.42" ry="18"/>
<text text-anchor="middle" x="692" y="-175.8" font-family="Times,serif" font-size="14.00">LikeCommentRepo</text>
</g>
<!-- LikeCommentRepo&#45;&gt;LikesModule -->
<g id="edge25" class="edge">
<title>LikeCommentRepo&#45;&gt;LikesModule</title>
<path fill="none" stroke="black" d="M676.89,-197.87C676.89,-197.87 676.89,-219.54 676.89,-219.54"/>
<polygon fill="black" stroke="black" points="673.39,-219.54 676.89,-229.54 680.39,-219.54 673.39,-219.54"/>
</g>
<!-- LikeCommentsService -->
<g id="node29" class="node">
<title>LikeCommentsService</title>
<ellipse fill="#fdb462" stroke="black" cx="487" cy="-180" rx="99.58" ry="18"/>
<text text-anchor="middle" x="487" y="-175.8" font-family="Times,serif" font-size="14.00">LikeCommentsService</text>
</g>
<!-- LikeCommentsService&#45;&gt;LikesModule -->
<g id="edge26" class="edge">
<title>LikeCommentsService&#45;&gt;LikesModule</title>
<path fill="none" stroke="black" d="M528.82,-196.47C528.82,-213.61 528.82,-238 528.82,-238 528.82,-238 636.54,-238 636.54,-238"/>
<polygon fill="black" stroke="black" points="636.54,-241.5 646.54,-238 636.54,-234.5 636.54,-241.5"/>
</g>
<!-- SearchEngineService -->
<g id="node31" class="node">
<title>SearchEngineService</title>
<ellipse fill="#fdb462" stroke="black" cx="2445" cy="-324" rx="93.74" ry="18"/>
<text text-anchor="middle" x="2445" y="-319.8" font-family="Times,serif" font-size="14.00">SearchEngineService</text>
</g>
<!-- SearchEngineService&#45;&gt;SearchEngineModule -->
<g id="edge34" class="edge">
<title>SearchEngineService&#45;&gt;SearchEngineModule</title>
<path fill="none" stroke="black" d="M2515.86,-312.12C2515.86,-312.12 2515.86,-276.01 2515.86,-276.01"/>
<polygon fill="black" stroke="black" points="2519.36,-276.01 2515.86,-266.01 2512.36,-276.01 2519.36,-276.01"/>
</g>
<!-- UserRepo -->
<g id="node34" class="node">
<title>UserRepo</title>
<ellipse fill="#fdb462" stroke="black" cx="2134" cy="-104" rx="49.8" ry="18"/>
<text text-anchor="middle" x="2134" y="-99.8" font-family="Times,serif" font-size="14.00">UserRepo</text>
</g>
<!-- UserRepo&#45;&gt;UsersModule -->
<g id="edge37" class="edge">
<title>UserRepo&#45;&gt;UsersModule</title>
<path fill="none" stroke="black" d="M2149.24,-121.25C2149.24,-121.25 2149.24,-151.76 2149.24,-151.76"/>
<polygon fill="black" stroke="black" points="2145.74,-151.76 2149.24,-161.76 2152.74,-151.76 2145.74,-151.76"/>
</g>
<!-- UsersSeeder -->
<g id="node35" class="node">
<title>UsersSeeder</title>
<ellipse fill="#fdb462" stroke="black" cx="2007" cy="-104" rx="59.09" ry="18"/>
<text text-anchor="middle" x="2007" y="-99.8" font-family="Times,serif" font-size="14.00">UsersSeeder</text>
</g>
<!-- UsersSeeder&#45;&gt;UsersModule -->
<g id="edge38" class="edge">
<title>UsersSeeder&#45;&gt;UsersModule</title>
<path fill="none" stroke="black" d="M2066.43,-104C2070.98,-104 2073.84,-104 2073.84,-104 2073.84,-104 2073.84,-174 2073.84,-174 2073.84,-174 2078.1,-174 2078.1,-174"/>
<polygon fill="black" stroke="black" points="2078.1,-177.5 2088.1,-174 2078.1,-170.5 2078.1,-177.5"/>
</g>
<!-- UsersService -->
<g id="node36" class="node">
<title>UsersService</title>
<ellipse fill="#fdb462" stroke="black" cx="1868" cy="-104" rx="61.95" ry="18"/>
<text text-anchor="middle" x="1868" y="-99.8" font-family="Times,serif" font-size="14.00">UsersService</text>
</g>
<!-- UsersService&#45;&gt;UsersModule -->
<g id="edge39" class="edge">
<title>UsersService&#45;&gt;UsersModule</title>
<path fill="none" stroke="black" d="M1871,-122.11C1871,-131.9 1871,-142 1871,-142 1871,-142 2118.76,-142 2118.76,-142 2118.76,-142 2118.76,-151.89 2118.76,-151.89"/>
<polygon fill="black" stroke="black" points="2115.26,-151.89 2118.76,-161.89 2122.26,-151.89 2115.26,-151.89"/>
</g>
</g>
</svg>
