<?xml version="1.0" encoding="UTF-8" standalone="no"?>
<!DOCTYPE svg PUBLIC "-//W3C//DTD SVG 1.1//EN"
 "http://www.w3.org/Graphics/SVG/1.1/DTD/svg11.dtd">
<!-- Generated by graphviz version 2.47.0 (20210316.0004)
 -->
<!-- Title: dependencies Pages: 1 -->
<svg width="504pt" height="284pt"
 viewBox="0.00 0.00 504.00 284.00" xmlns="http://www.w3.org/2000/svg" xmlns:xlink="http://www.w3.org/1999/xlink">
<g id="graph0" class="graph" transform="scale(1 1) rotate(0) translate(4 280)">
<title>dependencies</title>
<polygon fill="white" stroke="transparent" points="-4,4 -4,-280 500,-280 500,4 -4,4"/>
<text text-anchor="start" x="227.01" y="-42.4" font-family="sans-serif" font-weight="bold" font-size="14.00">Legend</text>
<polygon fill="#ffffb3" stroke="transparent" points="14,-10 14,-30 34,-30 34,-10 14,-10"/>
<text text-anchor="start" x="37.63" y="-15.4" font-family="sans-serif" font-size="14.00"> &#160;Declarations</text>
<polygon fill="#8dd3c7" stroke="transparent" points="127,-10 127,-30 147,-30 147,-10 127,-10"/>
<text text-anchor="start" x="150.73" y="-15.4" font-family="sans-serif" font-size="14.00"> &#160;Module</text>
<polygon fill="#80b1d3" stroke="transparent" points="213,-10 213,-30 233,-30 233,-10 213,-10"/>
<text text-anchor="start" x="236.78" y="-15.4" font-family="sans-serif" font-size="14.00"> &#160;Bootstrap</text>
<polygon fill="#fdb462" stroke="transparent" points="310,-10 310,-30 330,-30 330,-10 310,-10"/>
<text text-anchor="start" x="333.67" y="-15.4" font-family="sans-serif" font-size="14.00"> &#160;Providers</text>
<polygon fill="#fb8072" stroke="transparent" points="406,-10 406,-30 426,-30 426,-10 406,-10"/>
<text text-anchor="start" x="429.73" y="-15.4" font-family="sans-serif" font-size="14.00"> &#160;Exports</text>
<g id="clust1" class="cluster">
<title>cluster_AuthorsModule</title>
<polygon fill="none" stroke="black" stroke-dasharray="1,5" points="35,-70 35,-268 461,-268 461,-70 35,-70"/>
</g>
<g id="clust4" class="cluster">
<title>cluster_AuthorsModule_exports</title>
<polygon fill="none" stroke="black" points="209,-208 209,-260 331,-260 331,-208 209,-208"/>
</g>
<g id="clust3" class="cluster">
<title>cluster_AuthorsModule_imports</title>
<polygon fill="none" stroke="black" points="345,-78 345,-130 453,-130 453,-78 345,-78"/>
</g>
<g id="clust6" class="cluster">
<title>cluster_AuthorsModule_providers</title>
<polygon fill="none" stroke="black" points="43,-78 43,-130 337,-130 337,-78 43,-78"/>
</g>
<!-- UsersModule -->
<g id="node1" class="node">
<title>UsersModule</title>
<polygon fill="#8dd3c7" stroke="black" points="444.92,-122 441.92,-126 420.92,-126 417.92,-122 353.08,-122 353.08,-86 444.92,-86 444.92,-122"/>
<text text-anchor="middle" x="399" y="-99.8" font-family="Times,serif" font-size="14.00">UsersModule</text>
</g>
<!-- AuthorsModule -->
<g id="node2" class="node">
<title>AuthorsModule</title>
<polygon fill="#8dd3c7" stroke="black" points="322.15,-187 319.15,-191 298.15,-191 295.15,-187 217.85,-187 217.85,-151 322.15,-151 322.15,-187"/>
<text text-anchor="middle" x="270" y="-164.8" font-family="Times,serif" font-size="14.00">AuthorsModule</text>
</g>
<!-- UsersModule&#45;&gt;AuthorsModule -->
<g id="edge1" class="edge">
<title>UsersModule&#45;&gt;AuthorsModule</title>
<path fill="none" stroke="black" d="M399,-122.11C399,-141.34 399,-169 399,-169 399,-169 332.47,-169 332.47,-169"/>
<polygon fill="black" stroke="black" points="332.47,-165.5 322.47,-169 332.47,-172.5 332.47,-165.5"/>
</g>
<!-- AuthorsService  -->
<g id="node3" class="node">
<title>AuthorsService </title>
<polygon fill="#fb8072" stroke="black" points="323.08,-252 216.92,-252 216.92,-216 323.08,-216 323.08,-252"/>
<text text-anchor="middle" x="270" y="-229.8" font-family="Times,serif" font-size="14.00">AuthorsService </text>
</g>
<!-- AuthorsModule&#45;&gt;AuthorsService  -->
<g id="edge2" class="edge">
<title>AuthorsModule&#45;&gt;AuthorsService </title>
<path fill="none" stroke="black" stroke-dasharray="5,2" d="M270,-187.11C270,-187.11 270,-205.99 270,-205.99"/>
<polygon fill="black" stroke="black" points="266.5,-205.99 270,-215.99 273.5,-205.99 266.5,-205.99"/>
</g>
<!-- AuthorRepo -->
<g id="node4" class="node">
<title>AuthorRepo</title>
<ellipse fill="#fdb462" stroke="black" cx="270" cy="-104" rx="58.55" ry="18"/>
<text text-anchor="middle" x="270" y="-99.8" font-family="Times,serif" font-size="14.00">AuthorRepo</text>
</g>
<!-- AuthorRepo&#45;&gt;AuthorsModule -->
<g id="edge3" class="edge">
<title>AuthorRepo&#45;&gt;AuthorsModule</title>
<path fill="none" stroke="black" d="M270,-122.11C270,-122.11 270,-140.99 270,-140.99"/>
<polygon fill="black" stroke="black" points="266.5,-140.99 270,-150.99 273.5,-140.99 266.5,-140.99"/>
</g>
<!-- AuthorsService -->
<g id="node5" class="node">
<title>AuthorsService</title>
<ellipse fill="#fdb462" stroke="black" cx="122" cy="-104" rx="71.21" ry="18"/>
<text text-anchor="middle" x="122" y="-99.8" font-family="Times,serif" font-size="14.00">AuthorsService</text>
</g>
<!-- AuthorsService&#45;&gt;AuthorsModule -->
<g id="edge4" class="edge">
<title>AuthorsService&#45;&gt;AuthorsModule</title>
<path fill="none" stroke="black" d="M122,-122.11C122,-141.34 122,-169 122,-169 122,-169 207.82,-169 207.82,-169"/>
<polygon fill="black" stroke="black" points="207.82,-172.5 217.82,-169 207.82,-165.5 207.82,-172.5"/>
</g>
</g>
</svg>
