<?xml version="1.0" encoding="UTF-8" standalone="no"?>
<!DOCTYPE svg PUBLIC "-//W3C//DTD SVG 1.1//EN"
 "http://www.w3.org/Graphics/SVG/1.1/DTD/svg11.dtd">
<!-- Generated by graphviz version 2.47.0 (20210316.0004)
 -->
<!-- Title: dependencies Pages: 1 -->
<svg width="504pt" height="284pt"
 viewBox="0.00 0.00 504.00 284.00" xmlns="http://www.w3.org/2000/svg" xmlns:xlink="http://www.w3.org/1999/xlink">
<g id="graph0" class="graph" transform="scale(1 1) rotate(0) translate(4 280)">
<title>dependencies</title>
<polygon fill="white" stroke="transparent" points="-4,4 -4,-280 500,-280 500,4 -4,4"/>
<text text-anchor="start" x="227.01" y="-42.4" font-family="sans-serif" font-weight="bold" font-size="14.00">Legend</text>
<polygon fill="#ffffb3" stroke="transparent" points="14,-10 14,-30 34,-30 34,-10 14,-10"/>
<text text-anchor="start" x="37.63" y="-15.4" font-family="sans-serif" font-size="14.00"> &#160;Declarations</text>
<polygon fill="#8dd3c7" stroke="transparent" points="127,-10 127,-30 147,-30 147,-10 127,-10"/>
<text text-anchor="start" x="150.73" y="-15.4" font-family="sans-serif" font-size="14.00"> &#160;Module</text>
<polygon fill="#80b1d3" stroke="transparent" points="213,-10 213,-30 233,-30 233,-10 213,-10"/>
<text text-anchor="start" x="236.78" y="-15.4" font-family="sans-serif" font-size="14.00"> &#160;Bootstrap</text>
<polygon fill="#fdb462" stroke="transparent" points="310,-10 310,-30 330,-30 330,-10 310,-10"/>
<text text-anchor="start" x="333.67" y="-15.4" font-family="sans-serif" font-size="14.00"> &#160;Providers</text>
<polygon fill="#fb8072" stroke="transparent" points="406,-10 406,-30 426,-30 426,-10 406,-10"/>
<text text-anchor="start" x="429.73" y="-15.4" font-family="sans-serif" font-size="14.00"> &#160;Exports</text>
<g id="clust1" class="cluster">
<title>cluster_CommentsModule</title>
<polygon fill="none" stroke="black" stroke-dasharray="1,5" points="71.5,-70 71.5,-268 424.5,-268 424.5,-70 71.5,-70"/>
</g>
<g id="clust4" class="cluster">
<title>cluster_CommentsModule_exports</title>
<polygon fill="none" stroke="black" points="184.5,-208 184.5,-260 322.5,-260 322.5,-208 184.5,-208"/>
</g>
<g id="clust6" class="cluster">
<title>cluster_CommentsModule_providers</title>
<polygon fill="none" stroke="black" points="79.5,-78 79.5,-130 416.5,-130 416.5,-78 79.5,-78"/>
</g>
<!-- CommentsService  -->
<g id="node1" class="node">
<title>CommentsService </title>
<polygon fill="#fb8072" stroke="black" points="314.65,-252 192.35,-252 192.35,-216 314.65,-216 314.65,-252"/>
<text text-anchor="middle" x="253.5" y="-229.8" font-family="Times,serif" font-size="14.00">CommentsService </text>
</g>
<!-- CommentsModule -->
<g id="node2" class="node">
<title>CommentsModule</title>
<polygon fill="#8dd3c7" stroke="black" points="313.72,-187 310.72,-191 289.72,-191 286.72,-187 193.28,-187 193.28,-151 313.72,-151 313.72,-187"/>
<text text-anchor="middle" x="253.5" y="-164.8" font-family="Times,serif" font-size="14.00">CommentsModule</text>
</g>
<!-- CommentsModule&#45;&gt;CommentsService  -->
<g id="edge1" class="edge">
<title>CommentsModule&#45;&gt;CommentsService </title>
<path fill="none" stroke="black" stroke-dasharray="5,2" d="M253.5,-187.11C253.5,-187.11 253.5,-205.99 253.5,-205.99"/>
<polygon fill="black" stroke="black" points="250,-205.99 253.5,-215.99 257,-205.99 250,-205.99"/>
</g>
<!-- CommentRepo -->
<g id="node3" class="node">
<title>CommentRepo</title>
<ellipse fill="#fdb462" stroke="black" cx="338.5" cy="-104" rx="69.52" ry="18"/>
<text text-anchor="middle" x="338.5" y="-99.8" font-family="Times,serif" font-size="14.00">CommentRepo</text>
</g>
<!-- CommentRepo&#45;&gt;CommentsModule -->
<g id="edge2" class="edge">
<title>CommentRepo&#45;&gt;CommentsModule</title>
<path fill="none" stroke="black" d="M291.3,-117.47C291.3,-117.47 291.3,-140.86 291.3,-140.86"/>
<polygon fill="black" stroke="black" points="287.8,-140.86 291.3,-150.86 294.8,-140.86 287.8,-140.86"/>
</g>
<!-- CommentsService -->
<g id="node4" class="node">
<title>CommentsService</title>
<ellipse fill="#fdb462" stroke="black" cx="169.5" cy="-104" rx="81.68" ry="18"/>
<text text-anchor="middle" x="169.5" y="-99.8" font-family="Times,serif" font-size="14.00">CommentsService</text>
</g>
<!-- CommentsService&#45;&gt;CommentsModule -->
<g id="edge3" class="edge">
<title>CommentsService&#45;&gt;CommentsModule</title>
<path fill="none" stroke="black" d="M222.37,-117.78C222.37,-117.78 222.37,-140.55 222.37,-140.55"/>
<polygon fill="black" stroke="black" points="218.87,-140.55 222.37,-150.55 225.87,-140.55 218.87,-140.55"/>
</g>
</g>
</svg>
