<?xml version="1.0" encoding="UTF-8" standalone="no"?>
<!DOCTYPE svg PUBLIC "-//W3C//DTD SVG 1.1//EN"
 "http://www.w3.org/Graphics/SVG/1.1/DTD/svg11.dtd">
<!-- Generated by graphviz version 2.47.0 (20210316.0004)
 -->
<!-- Title: dependencies Pages: 1 -->
<svg width="1078pt" height="284pt"
 viewBox="0.00 0.00 1078.00 284.00" xmlns="http://www.w3.org/2000/svg" xmlns:xlink="http://www.w3.org/1999/xlink">
<g id="graph0" class="graph" transform="scale(1 1) rotate(0) translate(4 280)">
<title>dependencies</title>
<polygon fill="white" stroke="transparent" points="-4,4 -4,-280 1074,-280 1074,4 -4,4"/>
<text text-anchor="start" x="514.01" y="-42.4" font-family="sans-serif" font-weight="bold" font-size="14.00">Legend</text>
<polygon fill="#ffffb3" stroke="transparent" points="301,-10 301,-30 321,-30 321,-10 301,-10"/>
<text text-anchor="start" x="324.63" y="-15.4" font-family="sans-serif" font-size="14.00"> &#160;Declarations</text>
<polygon fill="#8dd3c7" stroke="transparent" points="414,-10 414,-30 434,-30 434,-10 414,-10"/>
<text text-anchor="start" x="437.73" y="-15.4" font-family="sans-serif" font-size="14.00"> &#160;Module</text>
<polygon fill="#80b1d3" stroke="transparent" points="500,-10 500,-30 520,-30 520,-10 500,-10"/>
<text text-anchor="start" x="523.78" y="-15.4" font-family="sans-serif" font-size="14.00"> &#160;Bootstrap</text>
<polygon fill="#fdb462" stroke="transparent" points="597,-10 597,-30 617,-30 617,-10 597,-10"/>
<text text-anchor="start" x="620.67" y="-15.4" font-family="sans-serif" font-size="14.00"> &#160;Providers</text>
<polygon fill="#fb8072" stroke="transparent" points="693,-10 693,-30 713,-30 713,-10 693,-10"/>
<text text-anchor="start" x="716.73" y="-15.4" font-family="sans-serif" font-size="14.00"> &#160;Exports</text>
<g id="clust1" class="cluster">
<title>cluster_LikesModule</title>
<polygon fill="none" stroke="black" stroke-dasharray="1,5" points="8,-70 8,-268 1062,-268 1062,-70 8,-70"/>
</g>
<g id="clust6" class="cluster">
<title>cluster_LikesModule_providers</title>
<polygon fill="none" stroke="black" points="282,-78 282,-130 1054,-130 1054,-78 282,-78"/>
</g>
<g id="clust4" class="cluster">
<title>cluster_LikesModule_exports</title>
<polygon fill="none" stroke="black" points="331,-208 331,-260 645,-260 645,-208 331,-208"/>
</g>
<g id="clust3" class="cluster">
<title>cluster_LikesModule_imports</title>
<polygon fill="none" stroke="black" points="16,-78 16,-130 274,-130 274,-78 16,-78"/>
</g>
<!-- ArticlesModule -->
<g id="node1" class="node">
<title>ArticlesModule</title>
<polygon fill="#8dd3c7" stroke="black" points="265.86,-122 262.86,-126 241.86,-126 238.86,-122 162.14,-122 162.14,-86 265.86,-86 265.86,-122"/>
<text text-anchor="middle" x="214" y="-99.8" font-family="Times,serif" font-size="14.00">ArticlesModule</text>
</g>
<!-- LikesModule -->
<g id="node3" class="node">
<title>LikesModule</title>
<polygon fill="#8dd3c7" stroke="black" points="537.15,-187 534.15,-191 513.15,-191 510.15,-187 446.85,-187 446.85,-151 537.15,-151 537.15,-187"/>
<text text-anchor="middle" x="492" y="-164.8" font-family="Times,serif" font-size="14.00">LikesModule</text>
</g>
<!-- ArticlesModule&#45;&gt;LikesModule -->
<g id="edge1" class="edge">
<title>ArticlesModule&#45;&gt;LikesModule</title>
<path fill="none" stroke="black" d="M214,-122.02C214,-139.37 214,-163 214,-163 214,-163 436.72,-163 436.72,-163"/>
<polygon fill="black" stroke="black" points="436.72,-166.5 446.72,-163 436.72,-159.5 436.72,-166.5"/>
</g>
<!-- CommentsModule -->
<g id="node2" class="node">
<title>CommentsModule</title>
<polygon fill="#8dd3c7" stroke="black" points="144.22,-122 141.22,-126 120.22,-126 117.22,-122 23.78,-122 23.78,-86 144.22,-86 144.22,-122"/>
<text text-anchor="middle" x="84" y="-99.8" font-family="Times,serif" font-size="14.00">CommentsModule</text>
</g>
<!-- CommentsModule&#45;&gt;LikesModule -->
<g id="edge2" class="edge">
<title>CommentsModule&#45;&gt;LikesModule</title>
<path fill="none" stroke="black" d="M84,-122.28C84,-143.32 84,-175 84,-175 84,-175 436.78,-175 436.78,-175"/>
<polygon fill="black" stroke="black" points="436.78,-178.5 446.78,-175 436.78,-171.5 436.78,-178.5"/>
</g>
<!-- LikeArticlesService  -->
<g id="node4" class="node">
<title>LikeArticlesService </title>
<polygon fill="#fb8072" stroke="black" points="636.95,-252 505.05,-252 505.05,-216 636.95,-216 636.95,-252"/>
<text text-anchor="middle" x="571" y="-229.8" font-family="Times,serif" font-size="14.00">LikeArticlesService </text>
</g>
<!-- LikesModule&#45;&gt;LikeArticlesService  -->
<g id="edge3" class="edge">
<title>LikesModule&#45;&gt;LikeArticlesService </title>
<path fill="none" stroke="black" stroke-dasharray="5,2" d="M521.3,-187.11C521.3,-187.11 521.3,-205.99 521.3,-205.99"/>
<polygon fill="black" stroke="black" points="517.8,-205.99 521.3,-215.99 524.8,-205.99 517.8,-205.99"/>
</g>
<!-- LikeCommentsService  -->
<g id="node5" class="node">
<title>LikeCommentsService </title>
<polygon fill="#fb8072" stroke="black" points="486.8,-252 339.2,-252 339.2,-216 486.8,-216 486.8,-252"/>
<text text-anchor="middle" x="413" y="-229.8" font-family="Times,serif" font-size="14.00">LikeCommentsService </text>
</g>
<!-- LikesModule&#45;&gt;LikeCommentsService  -->
<g id="edge4" class="edge">
<title>LikesModule&#45;&gt;LikeCommentsService </title>
<path fill="none" stroke="black" stroke-dasharray="5,2" d="M466.79,-187.11C466.79,-187.11 466.79,-205.99 466.79,-205.99"/>
<polygon fill="black" stroke="black" points="463.29,-205.99 466.79,-215.99 470.29,-205.99 463.29,-205.99"/>
</g>
<!-- LikeArticleRepo -->
<g id="node6" class="node">
<title>LikeArticleRepo</title>
<ellipse fill="#fdb462" stroke="black" cx="970" cy="-104" rx="75.86" ry="18"/>
<text text-anchor="middle" x="970" y="-99.8" font-family="Times,serif" font-size="14.00">LikeArticleRepo</text>
</g>
<!-- LikeArticleRepo&#45;&gt;LikesModule -->
<g id="edge5" class="edge">
<title>LikeArticleRepo&#45;&gt;LikesModule</title>
<path fill="none" stroke="black" d="M970,-122.28C970,-143.32 970,-175 970,-175 970,-175 547.4,-175 547.4,-175"/>
<polygon fill="black" stroke="black" points="547.4,-171.5 537.4,-175 547.4,-178.5 547.4,-171.5"/>
</g>
<!-- LikeArticlesService -->
<g id="node7" class="node">
<title>LikeArticlesService</title>
<ellipse fill="#fdb462" stroke="black" cx="788" cy="-104" rx="88.01" ry="18"/>
<text text-anchor="middle" x="788" y="-99.8" font-family="Times,serif" font-size="14.00">LikeArticlesService</text>
</g>
<!-- LikeArticlesService&#45;&gt;LikesModule -->
<g id="edge6" class="edge">
<title>LikeArticlesService&#45;&gt;LikesModule</title>
<path fill="none" stroke="black" d="M788,-122.02C788,-139.37 788,-163 788,-163 788,-163 547.28,-163 547.28,-163"/>
<polygon fill="black" stroke="black" points="547.28,-159.5 537.28,-163 547.28,-166.5 547.28,-159.5"/>
</g>
<!-- LikeCommentRepo -->
<g id="node8" class="node">
<title>LikeCommentRepo</title>
<ellipse fill="#fdb462" stroke="black" cx="595" cy="-104" rx="87.42" ry="18"/>
<text text-anchor="middle" x="595" y="-99.8" font-family="Times,serif" font-size="14.00">LikeCommentRepo</text>
</g>
<!-- LikeCommentRepo&#45;&gt;LikesModule -->
<g id="edge7" class="edge">
<title>LikeCommentRepo&#45;&gt;LikesModule</title>
<path fill="none" stroke="black" d="M522.56,-114.16C522.56,-114.16 522.56,-140.81 522.56,-140.81"/>
<polygon fill="black" stroke="black" points="519.06,-140.81 522.56,-150.81 526.06,-140.81 519.06,-140.81"/>
</g>
<!-- LikeCommentsService -->
<g id="node9" class="node">
<title>LikeCommentsService</title>
<ellipse fill="#fdb462" stroke="black" cx="390" cy="-104" rx="99.58" ry="18"/>
<text text-anchor="middle" x="390" y="-99.8" font-family="Times,serif" font-size="14.00">LikeCommentsService</text>
</g>
<!-- LikeCommentsService&#45;&gt;LikesModule -->
<g id="edge8" class="edge">
<title>LikeCommentsService&#45;&gt;LikesModule</title>
<path fill="none" stroke="black" d="M468.11,-115.32C468.11,-115.32 468.11,-140.94 468.11,-140.94"/>
<polygon fill="black" stroke="black" points="464.61,-140.94 468.11,-150.94 471.61,-140.94 464.61,-140.94"/>
</g>
</g>
</svg>
