<?xml version="1.0" encoding="UTF-8" standalone="no"?>
<!DOCTYPE svg PUBLIC "-//W3C//DTD SVG 1.1//EN"
 "http://www.w3.org/Graphics/SVG/1.1/DTD/svg11.dtd">
<!-- Generated by graphviz version 2.47.0 (20210316.0004)
 -->
<!-- Title: dependencies Pages: 1 -->
<svg width="504pt" height="284pt"
 viewBox="0.00 0.00 504.00 284.00" xmlns="http://www.w3.org/2000/svg" xmlns:xlink="http://www.w3.org/1999/xlink">
<g id="graph0" class="graph" transform="scale(1 1) rotate(0) translate(4 280)">
<title>dependencies</title>
<polygon fill="white" stroke="transparent" points="-4,4 -4,-280 500,-280 500,4 -4,4"/>
<text text-anchor="start" x="227.01" y="-42.4" font-family="sans-serif" font-weight="bold" font-size="14.00">Legend</text>
<polygon fill="#ffffb3" stroke="transparent" points="14,-10 14,-30 34,-30 34,-10 14,-10"/>
<text text-anchor="start" x="37.63" y="-15.4" font-family="sans-serif" font-size="14.00"> &#160;Declarations</text>
<polygon fill="#8dd3c7" stroke="transparent" points="127,-10 127,-30 147,-30 147,-10 127,-10"/>
<text text-anchor="start" x="150.73" y="-15.4" font-family="sans-serif" font-size="14.00"> &#160;Module</text>
<polygon fill="#80b1d3" stroke="transparent" points="213,-10 213,-30 233,-30 233,-10 213,-10"/>
<text text-anchor="start" x="236.78" y="-15.4" font-family="sans-serif" font-size="14.00"> &#160;Bootstrap</text>
<polygon fill="#fdb462" stroke="transparent" points="310,-10 310,-30 330,-30 330,-10 310,-10"/>
<text text-anchor="start" x="333.67" y="-15.4" font-family="sans-serif" font-size="14.00"> &#160;Providers</text>
<polygon fill="#fb8072" stroke="transparent" points="406,-10 406,-30 426,-30 426,-10 406,-10"/>
<text text-anchor="start" x="429.73" y="-15.4" font-family="sans-serif" font-size="14.00"> &#160;Exports</text>
<g id="clust1" class="cluster">
<title>cluster_UsersModule</title>
<polygon fill="none" stroke="black" stroke-dasharray="1,5" points="43,-70 43,-268 453,-268 453,-70 43,-70"/>
</g>
<g id="clust6" class="cluster">
<title>cluster_UsersModule_providers</title>
<polygon fill="none" stroke="black" points="51,-78 51,-130 445,-130 445,-78 51,-78"/>
</g>
<g id="clust4" class="cluster">
<title>cluster_UsersModule_exports</title>
<polygon fill="none" stroke="black" points="154,-208 154,-260 357,-260 357,-208 154,-208"/>
</g>
<!-- UserRepo  -->
<g id="node1" class="node">
<title>UserRepo </title>
<polygon fill="#fb8072" stroke="black" points="348.98,-252 273.02,-252 273.02,-216 348.98,-216 348.98,-252"/>
<text text-anchor="middle" x="311" y="-229.8" font-family="Times,serif" font-size="14.00">UserRepo </text>
</g>
<!-- UsersService  -->
<g id="node2" class="node">
<title>UsersService </title>
<polygon fill="#fb8072" stroke="black" points="255.85,-252 162.15,-252 162.15,-216 255.85,-216 255.85,-252"/>
<text text-anchor="middle" x="209" y="-229.8" font-family="Times,serif" font-size="14.00">UsersService </text>
</g>
<!-- UsersModule -->
<g id="node3" class="node">
<title>UsersModule</title>
<polygon fill="#8dd3c7" stroke="black" points="305.92,-187 302.92,-191 281.92,-191 278.92,-187 214.08,-187 214.08,-151 305.92,-151 305.92,-187"/>
<text text-anchor="middle" x="260" y="-164.8" font-family="Times,serif" font-size="14.00">UsersModule</text>
</g>
<!-- UsersModule&#45;&gt;UserRepo  -->
<g id="edge1" class="edge">
<title>UsersModule&#45;&gt;UserRepo </title>
<path fill="none" stroke="black" stroke-dasharray="5,2" d="M289.49,-187.11C289.49,-187.11 289.49,-205.99 289.49,-205.99"/>
<polygon fill="black" stroke="black" points="285.99,-205.99 289.49,-215.99 292.99,-205.99 285.99,-205.99"/>
</g>
<!-- UsersModule&#45;&gt;UsersService  -->
<g id="edge2" class="edge">
<title>UsersModule&#45;&gt;UsersService </title>
<path fill="none" stroke="black" stroke-dasharray="5,2" d="M234.98,-187.11C234.98,-187.11 234.98,-205.99 234.98,-205.99"/>
<polygon fill="black" stroke="black" points="231.48,-205.99 234.98,-215.99 238.48,-205.99 231.48,-205.99"/>
</g>
<!-- UserRepo -->
<g id="node4" class="node">
<title>UserRepo</title>
<ellipse fill="#fdb462" stroke="black" cx="387" cy="-104" rx="49.8" ry="18"/>
<text text-anchor="middle" x="387" y="-99.8" font-family="Times,serif" font-size="14.00">UserRepo</text>
</g>
<!-- UserRepo&#45;&gt;UsersModule -->
<g id="edge3" class="edge">
<title>UserRepo&#45;&gt;UsersModule</title>
<path fill="none" stroke="black" d="M343.04,-112.5C343.04,-130.12 343.04,-169 343.04,-169 343.04,-169 315.89,-169 315.89,-169"/>
<polygon fill="black" stroke="black" points="315.89,-165.5 305.89,-169 315.89,-172.5 315.89,-165.5"/>
</g>
<!-- UsersSeeder -->
<g id="node5" class="node">
<title>UsersSeeder</title>
<ellipse fill="#fdb462" stroke="black" cx="260" cy="-104" rx="59.09" ry="18"/>
<text text-anchor="middle" x="260" y="-99.8" font-family="Times,serif" font-size="14.00">UsersSeeder</text>
</g>
<!-- UsersSeeder&#45;&gt;UsersModule -->
<g id="edge4" class="edge">
<title>UsersSeeder&#45;&gt;UsersModule</title>
<path fill="none" stroke="black" d="M260,-122.11C260,-122.11 260,-140.99 260,-140.99"/>
<polygon fill="black" stroke="black" points="256.5,-140.99 260,-150.99 263.5,-140.99 256.5,-140.99"/>
</g>
<!-- UsersService -->
<g id="node6" class="node">
<title>UsersService</title>
<ellipse fill="#fdb462" stroke="black" cx="121" cy="-104" rx="61.95" ry="18"/>
<text text-anchor="middle" x="121" y="-99.8" font-family="Times,serif" font-size="14.00">UsersService</text>
</g>
<!-- UsersService&#45;&gt;UsersModule -->
<g id="edge5" class="edge">
<title>UsersService&#45;&gt;UsersModule</title>
<path fill="none" stroke="black" d="M172.65,-114.16C172.65,-132.44 172.65,-169 172.65,-169 172.65,-169 204.28,-169 204.28,-169"/>
<polygon fill="black" stroke="black" points="204.28,-172.5 214.28,-169 204.28,-165.5 204.28,-172.5"/>
</g>
</g>
</svg>
